name C:\Users\u0101727\Documents\MyRepositories\predictivesimulations\OpenSimModel\subject1\GRF\gait_67.mot
datacolumns 19
datarows 10
range 1.76100000 1.77000000
endheader

                time	     ground_force_vx	     ground_force_vy	     ground_force_vz	     ground_force_px	     ground_force_py	     ground_force_pz	   1_ground_force_vx	   1_ground_force_vy	   1_ground_force_vz	   1_ground_force_px	   1_ground_force_py	   1_ground_force_pz	     ground_torque_x	     ground_torque_y	     ground_torque_z	   1_ground_torque_x	   1_ground_torque_y	   1_ground_torque_z	
          1.76100000	          0.00000000	          0.00000000	          0.00000000	          0.00000000	          0.00000000	          0.00000000	         38.54204764	        569.02341469	         -5.38819110	         -0.15661468	          0.00000000	          0.25305161	          0.00000000	          0.00000000	          0.00000000	          0.00000000	          1.64721614	          0.00000000	
          1.76200000	          0.00000000	          0.00000000	          0.00000000	          0.00000000	          0.00000000	          0.00000000	         39.46325365	        571.45110734	         -5.44420451	         -0.15652184	          0.00000000	          0.25302828	          0.00000000	          0.00000000	          0.00000000	          0.00000000	          1.66140233	          0.00000000	
          1.76300000	          0.00000000	          0.00000000	          0.00000000	          0.00000000	          0.00000000	          0.00000000	         40.39202158	        573.86398545	         -5.50103588	         -0.15643072	          0.00000000	          0.25300468	          0.00000000	          0.00000000	          0.00000000	          0.00000000	          1.67553402	          0.00000000	
          1.76400000	          0.00000000	          0.00000000	          0.00000000	          0.00000000	          0.00000000	          0.00000000	         41.32820239	        576.26113113	         -5.55858868	         -0.15634118	          0.00000000	          0.25298082	          0.00000000	          0.00000000	          0.00000000	          0.00000000	          1.68961359	          0.00000000	
          1.76500000	          0.00000000	          0.00000000	          0.00000000	          0.00000000	          0.00000000	          0.00000000	         42.27164425	        578.64164049	         -5.61676420	         -0.15625310	          0.00000000	          0.25295671	          0.00000000	          0.00000000	          0.00000000	          0.00000000	          1.70364339	          0.00000000	
          1.76600000	          0.00000000	          0.00000000	          0.00000000	          0.00000000	          0.00000000	          0.00000000	         43.22219271	        581.00462471	         -5.67546185	         -0.15616636	          0.00000000	          0.25293235	          0.00000000	          0.00000000	          0.00000000	          0.00000000	          1.71762566	          0.00000000	
          1.76700000	          0.00000000	          0.00000000	          0.00000000	          0.00000000	          0.00000000	          0.00000000	         44.17969093	        583.34921135	         -5.73457918	         -0.15608084	          0.00000000	          0.25290776	          0.00000000	          0.00000000	          0.00000000	          0.00000000	          1.73156248	          0.00000000	
          1.76800000	          0.00000000	          0.00000000	          0.00000000	          0.00000000	          0.00000000	          0.00000000	         45.14398008	        585.67454454	         -5.79401179	         -0.15599644	          0.00000000	          0.25288294	          0.00000000	          0.00000000	          0.00000000	          0.00000000	          1.74545572	          0.00000000	
          1.76900000	          0.00000000	          0.00000000	          0.00000000	          0.00000000	          0.00000000	          0.00000000	         46.11489936	        587.97978532	         -5.85365339	         -0.15591304	          0.00000000	          0.25285788	          0.00000000	          0.00000000	          0.00000000	          0.00000000	          1.75930711	          0.00000000	
          1.77000000	          0.00000000	          0.00000000	          0.00000000	          0.00000000	          0.00000000	          0.00000000	         47.09228591	        590.26411297	         -5.91339616	         -0.15583054	          0.00000000	          0.25283260	          0.00000000	          0.00000000	          0.00000000	          0.00000000	          1.77311824	          0.00000000	
